<svg xmlns="http://www.w3.org/2000/svg" shape-rendering="geometricPrecision" text-rendering="geometricPrecision" image-rendering="optimizeQuality" fill-rule="evenodd" clip-rule="evenodd" viewBox="0 0 512 468.553"><path fill="#fff" fill-rule="nonzero" d="M483.381 151.575H28.619v219.35c0 37.906 31.106 69.009 69.013 69.009h316.736c37.884 0 69.013-31.125 69.013-69.009v-219.35z"/><path fill="#FD5" d="M353.177 122.962l36.214-92.199c.286-.726.621-1.441.999-2.144H284.447l-37.054 94.343h105.784zm62.346-94.331l-37.051 94.331h104.909v-25.33c0-18.947-7.773-36.205-20.295-48.724-12.255-12.258-29.061-19.968-47.563-20.277zM88.36 122.962l36.214-92.199c.287-.726.621-1.441.999-2.144H97.632c-18.963 0-36.218 7.77-48.731 20.282-12.512 12.513-20.282 29.768-20.282 48.731v25.33H88.36zm62.353-94.343l-37.058 94.343h108.681l36.129-91.983c.315-.798.687-1.587 1.116-2.36H150.713z"/><path fill="#212121" fill-rule="nonzero" d="M97.632 0h316.736C468.073 0 512 43.927 512 97.632v273.293c0 53.682-43.95 97.628-97.632 97.628H97.632C43.927 468.553 0 424.629 0 370.925V97.632C0 43.902 43.902 0 97.632 0zm255.545 122.962l36.214-92.199c.286-.726.621-1.441.999-2.144H284.447l-37.054 94.343h105.784zm62.346-94.331l-37.051 94.331h104.909v-25.33c0-37.462-30.413-68.377-67.858-69.001zM88.36 122.962l36.214-92.199c.287-.726.621-1.441.999-2.144H97.632c-37.929 0-69.013 31.084-69.013 69.013v25.33H88.36zm62.353-94.343l-37.058 94.343h108.681l36.129-91.983c.315-.798.687-1.587 1.116-2.36H150.713zm332.668 122.956H28.619v219.35c0 37.906 31.106 69.009 69.013 69.009h316.736c37.884 0 69.013-31.125 69.013-69.009v-219.35z"/><path fill="#212121" d="M321.881 219.266c-1.981-1.97-4.303-2.939-6.986-2.939-2.673 0-5.037.969-6.976 2.939l-10.638 10.607c-5.761-3.716-12.161-6.517-18.657-8.647v-16.315c0-2.747-.937-5.069-2.844-6.986-1.917-1.917-4.238-2.843-6.975-2.843h-20.489c-2.609 0-4.898.927-6.869 2.843-1.948 1.917-2.918 4.239-2.918 6.986v14.941c-6.645 1.544-13.12 3.994-19.094 7.284l-11.788-11.618c-1.843-1.949-4.089-2.96-6.794-2.96-2.705 0-5.027 1.001-6.986 2.96l-14.334 14.355c-1.97 1.981-2.95 4.292-2.95 6.975 0 2.695.98 5.037 2.95 6.986l10.596 10.649c-3.717 5.783-6.475 12.119-8.647 18.647h-16.315c-2.747 0-5.069.937-6.975 2.854-1.917 1.906-2.854 4.228-2.854 6.986v20.468c0 2.609.937 4.898 2.854 6.879 1.906 1.938 4.228 2.918 6.975 2.918h14.941c1.597 6.772 4.068 13.13 7.284 19.285l-11.618 11.576c-1.949 1.842-2.96 4.1-2.96 6.815 0 2.684 1.011 5.016 2.96 6.986l14.355 14.536c1.981 1.842 4.302 2.737 6.986 2.737s5.037-.895 6.975-2.737l10.649-10.808c5.719 3.695 12.194 6.528 18.658 8.646v16.326c0 2.737.926 5.058 2.843 6.975 1.906 1.906 4.238 2.854 6.986 2.854h20.468c2.619 0 4.898-.948 6.869-2.854 1.948-1.917 2.928-4.238 2.928-6.975v-14.941c6.752-1.586 13.152-4.079 19.286-7.284l11.575 11.618c1.853 1.938 4.132 2.95 6.89 2.95 2.79 0 5.059-1.012 6.912-2.95l14.536-14.365c1.842-1.992 2.747-4.303 2.747-6.986 0-2.684-.905-5.027-2.747-6.976l-10.809-10.638c3.706-5.74 6.506-12.172 8.647-18.657h16.314c2.747 0 5.069-.948 6.975-2.854 1.917-1.918 2.854-4.239 2.854-6.976V288.06c0-2.62-.937-4.888-2.854-6.869-1.906-1.959-4.228-2.918-6.975-2.918l-14.93.001c-1.619-6.614-4.047-13.131-7.284-19.105l11.608-11.778c1.948-1.842 2.96-4.1 2.96-6.805 0-2.694-1.001-4.994-2.96-6.975l-14.355-14.344v-.001zm-65.878 26.559c6.855 0 13.32 1.301 19.463 3.89 6.117 2.642 11.428 6.183 15.935 10.65 4.453 4.493 7.994 9.832 10.637 15.921 2.588 6.13 3.89 12.609 3.89 19.45 0 6.867-1.301 13.333-3.89 19.489-2.643 6.09-6.184 11.402-10.637 15.909-4.52 4.48-9.818 8.035-15.935 10.663-6.143 2.575-12.608 3.876-19.463 3.876-6.854 0-13.319-1.301-19.476-3.876-6.077-2.629-11.402-6.183-15.894-10.663-4.481-4.507-8.035-9.819-10.664-15.909-2.588-6.156-3.876-12.622-3.876-19.489 0-6.841 1.288-13.319 3.876-19.45 2.629-6.103 6.183-11.428 10.664-15.921 4.493-4.467 9.818-8.008 15.894-10.65 6.143-2.589 12.622-3.89 19.476-3.89z"/></svg>